<svg width="25" height="25" viewBox="0 0 25 25" fill="none" xmlns="http://www.w3.org/2000/svg">
<path d="M12.5 11.1111C15.9722 11.1111 18.9236 10.5671 21.3542 9.47916C23.7847 8.3912 25 7.08333 25 5.55555C25 4.02778 23.7847 2.71991 21.3542 1.63194C18.9236 0.543982 15.9722 0 12.5 0C9.02778 0 6.07639 0.543982 3.64583 1.63194C1.21528 2.71991 0 4.02778 0 5.55555C0 7.08333 1.21528 8.3912 3.64583 9.47916C6.07639 10.5671 9.02778 11.1111 12.5 11.1111ZM12.5 14.5833C13.4491 14.5833 14.6356 14.4847 16.0597 14.2875C17.4838 14.0903 18.8551 13.7722 20.1736 13.3333C21.4931 12.8935 22.6273 12.3208 23.5764 11.6153C24.5255 10.9097 25 10.0472 25 9.02778V12.5C25 13.5185 24.5255 14.381 23.5764 15.0875C22.6273 15.794 21.4931 16.3667 20.1736 16.8056C18.8542 17.2454 17.4829 17.5639 16.0597 17.7611C14.6366 17.9583 13.45 18.0565 12.5 18.0556C11.5509 18.0556 10.3648 17.9569 8.94167 17.7597C7.51852 17.5625 6.14676 17.2444 4.82639 16.8056C3.50694 16.3657 2.37269 15.7931 1.42361 15.0875C0.474537 14.3819 0 13.5194 0 12.5V9.02778C0 10.0463 0.474537 10.9088 1.42361 11.6153C2.37269 12.3218 3.50694 12.8944 4.82639 13.3333C6.14583 13.7731 7.51759 14.0917 8.94167 14.2889C10.3657 14.4861 11.5519 14.5843 12.5 14.5833ZM12.5 21.5278C13.4491 21.5278 14.6356 21.4292 16.0597 21.2319C17.4838 21.0347 18.8551 20.7167 20.1736 20.2778C21.4931 19.838 22.6273 19.2653 23.5764 18.5597C24.5255 17.8542 25 16.9917 25 15.9722V19.4444C25 20.463 24.5255 21.3255 23.5764 22.0319C22.6273 22.7384 21.4931 23.3111 20.1736 23.75C18.8542 24.1898 17.4829 24.5083 16.0597 24.7055C14.6366 24.9028 13.45 25.0009 12.5 25C11.5509 25 10.3648 24.9014 8.94167 24.7042C7.51852 24.5069 6.14676 24.1889 4.82639 23.75C3.50694 23.3102 2.37269 22.7375 1.42361 22.0319C0.474537 21.3264 0 20.4639 0 19.4444V15.9722C0 16.9907 0.474537 17.8532 1.42361 18.5597C2.37269 19.2662 3.50694 19.8389 4.82639 20.2778C6.14583 20.7176 7.51759 21.0361 8.94167 21.2333C10.3657 21.4306 11.5519 21.5287 12.5 21.5278Z" fill="white"/>
</svg>
