<svg width="21" height="29" viewBox="0 0 21 29" fill="none" xmlns="http://www.w3.org/2000/svg">
<path d="M9.61359 0V9.9281C9.61359 11.6594 10.3626 12.4847 11.9607 12.4847H21V24.7663C21 27.5797 19.7141 29 17.1294 29H3.87058C1.29872 29 0 27.5936 0 24.7663V4.24698C0 1.43355 1.29872 0 3.87058 0H9.61359ZM5.24015 17.3452H4.40754C3.94782 17.3452 3.57493 17.7492 3.57493 18.2472V24.5608C3.57493 25.0583 3.94782 25.4623 4.40754 25.4623H5.24015C5.69986 25.4623 6.07222 25.0583 6.07222 24.5603V18.2466C6.07222 17.7492 5.69933 17.3452 5.24015 17.3452ZM8.98607 14.6397H8.15347C7.69375 14.6397 7.3214 15.0436 7.3214 15.5411V24.5603C7.3214 25.0583 7.69428 25.4623 8.15347 25.4623H8.98607C9.44579 25.4623 9.81868 25.0583 9.81868 24.5603V15.5417C9.81868 15.0436 9.44579 14.6397 8.98607 14.6397ZM12.7325 20.0513H11.8999C11.4402 20.0513 11.0673 20.4552 11.0673 20.9533V24.5608C11.0673 25.0589 11.4402 25.4629 11.8999 25.4629H12.7325C13.1923 25.4629 13.5646 25.0589 13.5646 24.5608V20.9539C13.5646 20.4552 13.1917 20.0513 12.7325 20.0513ZM11.3113 0.148895C11.836 0.243542 12.3607 0.63598 12.9344 1.28523L19.8265 8.87313C20.413 9.53566 20.7752 10.077 20.8626 10.6316H11.9985C11.5489 10.6316 11.3113 10.3881 11.3113 9.90097V0.148895Z" fill="white"/>
</svg>
