<svg width="41" height="35" viewBox="0 0 41 35" fill="none" xmlns="http://www.w3.org/2000/svg">
<path d="M23.2537 19.0417H20.347V16.1122H23.2537M23.2537 24.9007H20.347V21.9712H23.2537M14.5335 7.32373H11.6268V4.39424H14.5335M14.5335 13.1827H11.6268V10.2532H14.5335M14.5335 19.0417H11.6268V16.1122H14.5335M14.5335 24.9007H11.6268V21.9712H14.5335M5.81342 13.1827H2.90671V10.2532H5.81342M5.81342 19.0417H2.90671V16.1122H5.81342M5.81342 24.9007H2.90671V21.9712H5.81342M17.4403 13.1827V4.39424L13.0802 0L8.72013 4.39424V7.32373H0V27.8302H26.1604V13.1827H17.4403Z" fill="white"/>
<path d="M10.8018 30.0566V32.0566H12.8018H36.1791H38.1791V30.0566L38.1791 25.9679C38.1791 25.9673 38.1791 25.9667 38.1791 25.9661C38.1791 25.9659 38.1791 25.9657 38.1791 25.9655C38.1801 24.7747 37.8678 23.6507 37.2448 22.6364C36.6327 21.64 35.7981 20.8541 34.7602 20.3172L34.7476 20.3107L34.7349 20.3043C33.0976 19.4868 31.4223 18.8674 29.7103 18.4522C29.6865 18.4464 29.6627 18.4407 29.6389 18.435C29.7726 18.317 29.9037 18.1938 30.0322 18.0653C31.5488 16.5487 32.3348 14.6654 32.3348 12.5235C32.3348 10.3817 31.5488 8.49836 30.0322 6.98176C28.5156 5.46516 26.6323 4.6792 24.4904 4.6792C22.3486 4.6792 20.4653 5.46516 18.9487 6.98176C17.4321 8.49836 16.6461 10.3817 16.6461 12.5235C16.6461 14.6654 17.4321 16.5487 18.9487 18.0653C19.0772 18.1938 19.2083 18.3171 19.342 18.435C19.3186 18.4406 19.2951 18.4463 19.2717 18.4519C17.5589 18.8662 15.8829 19.4859 14.2451 20.3048L14.2313 20.3117L14.2177 20.3187C13.1826 20.8563 12.3498 21.6412 11.7382 22.6354L13.0075 23.4162L11.7382 22.6354C11.1143 23.6496 10.8018 24.7741 10.8018 25.9655V30.0566Z" fill="white" stroke="#0F0426" stroke-width="4"/>
</svg>
