<svg width="38" height="52" viewBox="0 0 38 52" fill="none" xmlns="http://www.w3.org/2000/svg">
<path d="M32.786 19.1677L26.4237 25.556V33.0099L24.3038 35.1385V13.8423L19 8.51684L11.5763 15.9708V10.4623L19 3.00835L26.4237 10.4623V19.6049C26.4237 20.7798 27.3734 21.7334 28.5435 21.7334V9.57974L19 0L9.45374 9.5852V18.1048L0 27.5943L5.21126 32.8269L11.5736 26.4385V18.9846L13.6935 16.8561V38.155L18.9973 43.4804L26.4209 36.0265V41.5322L18.9973 48.9862L11.5736 41.5322V32.3897C11.5736 31.2148 10.6239 30.2612 9.45374 30.2612V42.4148L19 52L28.5463 42.4148V33.8952L38 24.4029L32.786 19.1677ZM9.45374 25.556L5.21126 29.8158L2.99885 27.5943L9.45374 21.1131V25.556ZM15.8161 37.2697V14.7248L18.9973 11.5307L22.1785 14.7248V37.2697L18.9973 40.4639L15.8161 37.2697ZM28.5435 26.4385L32.786 22.1788L34.9984 24.4002L28.5435 30.8814V26.4385Z" fill="white"/>
</svg>
