<svg width="130" height="116" viewBox="0 0 130 116" fill="none" xmlns="http://www.w3.org/2000/svg">
<path d="M13.7926 27.6041C21.4101 27.6041 27.5853 21.4247 27.5853 13.802C27.5853 6.17939 21.4101 0 13.7926 0C6.17517 0 0 6.17939 0 13.802C0 21.4247 6.17517 27.6041 13.7926 27.6041Z" fill="#B12E7B"/>
<path d="M65.0068 27.6041C72.6243 27.6041 78.7995 21.4247 78.7995 13.802C78.7995 6.17939 72.6243 0 65.0068 0C57.3894 0 51.2142 6.17939 51.2142 13.802C51.2142 21.4247 57.3894 27.6041 65.0068 27.6041Z" fill="#B12E7B"/>
<path d="M116.207 27.6041C123.825 27.6041 130 21.4247 130 13.802C130 6.17939 123.825 0 116.207 0C108.59 0 102.415 6.17939 102.415 13.802C102.415 21.4247 108.59 27.6041 116.207 27.6041Z" fill="#B12E7B"/>
<path d="M13.7926 71.7952C21.4101 71.7952 27.5853 65.6158 27.5853 57.9932C27.5853 50.3705 21.4101 44.1911 13.7926 44.1911C6.17517 44.1911 0 50.3705 0 57.9932C0 65.6158 6.17517 71.7952 13.7926 71.7952Z" fill="#B12E7B"/>
<path d="M65.0068 71.7952C72.6243 71.7952 78.7995 65.6158 78.7995 57.9932C78.7995 50.3705 72.6243 44.1911 65.0068 44.1911C57.3894 44.1911 51.2142 50.3705 51.2142 57.9932C51.2142 65.6158 57.3894 71.7952 65.0068 71.7952Z" fill="#B12E7B"/>
<path d="M116.207 71.7952C123.825 71.7952 130 65.6158 130 57.9932C130 50.3705 123.825 44.1911 116.207 44.1911C108.59 44.1911 102.415 50.3705 102.415 57.9932C102.415 65.6158 108.59 71.7952 116.207 71.7952Z" fill="#B12E7B"/>
<path d="M13.7926 116C21.4101 116 27.5853 109.821 27.5853 102.198C27.5853 94.5753 21.4101 88.3959 13.7926 88.3959C6.17517 88.3959 0 94.5753 0 102.198C0 109.821 6.17517 116 13.7926 116Z" fill="#B12E7B"/>
<path d="M65.0068 116C72.6243 116 78.7995 109.821 78.7995 102.198C78.7995 94.5753 72.6243 88.3959 65.0068 88.3959C57.3894 88.3959 51.2142 94.5753 51.2142 102.198C51.2142 109.821 57.3894 116 65.0068 116Z" fill="#B12E7B"/>
<path d="M116.207 116C123.825 116 130 109.821 130 102.198C130 94.5753 123.825 88.3959 116.207 88.3959C108.59 88.3959 102.415 94.5753 102.415 102.198C102.415 109.821 108.59 116 116.207 116Z" fill="#B12E7B"/>
</svg>
