<svg width="109" height="149" viewBox="0 0 109 149" fill="none" xmlns="http://www.w3.org/2000/svg">
<path d="M94.0441 54.9228L75.7942 73.2277V94.5862L69.7135 100.685V39.6634L54.5 24.404L33.2058 45.7624V29.9785L54.5 8.62009L75.7942 29.9785V56.1754C75.7942 59.5421 78.5184 62.2745 81.8749 62.2745V27.4496L54.5 0L27.1173 27.4653V51.8772L0 79.0684L14.9481 94.0616L33.198 75.7566V54.3982L39.2787 48.2991V109.329L54.4922 124.588L75.7864 103.23V119.006L54.4922 140.364L33.198 119.006V92.8089C33.198 89.4423 30.4738 86.7098 27.1173 86.7098V121.535L54.5 149L81.8827 121.535V97.1229L109 69.9238L94.0441 54.9228ZM27.1173 73.2277L14.9481 85.4337L8.60198 79.0684L27.1173 60.4972V73.2277ZM45.3672 106.792V42.1923L54.4922 33.0398L63.6172 42.1923V106.792L54.4922 115.945L45.3672 106.792ZM81.8749 75.7566L94.0441 63.5507L100.39 69.9159L81.8749 88.4871V75.7566Z" fill="#E0B03C"/>
</svg>
